<?xml version="1.0" encoding="UTF-8" standalone="no"?>
<svg xmlns:rdf="http://www.w3.org/1999/02/22-rdf-syntax-ns#" xmlns="http://www.w3.org/2000/svg" height="128" width="128" version="1.1" xmlns:cc="http://creativecommons.org/ns#" xmlns:xlink="http://www.w3.org/1999/xlink" viewBox="0 0 128 128" xmlns:dc="http://purl.org/dc/elements/1.1/">
<defs>
<linearGradient id="c">
<stop stop-color="#dd4400" offset="0"/>
<stop stop-color="#dd8800" offset="1"/>
</linearGradient>
<linearGradient id="ab">
<stop stop-color="#810000" offset="0"/>
<stop stop-color="#e45b63" offset="1"/>
</linearGradient>
<linearGradient id="a">
<stop stop-color="#77635b" offset="0"/>
<stop stop-color="#ead5ce" offset="1"/>
</linearGradient>
<linearGradient id="b">
<stop stop-color="#f0f04d" stop-opacity=".99608" offset="0"/>
<stop stop-color="#aeae0c" stop-opacity=".99608" offset="1"/>
</linearGradient>
<linearGradient id="m" y2="137.8" xlink:href="#b" gradientUnits="userSpaceOnUse" x2="263.27" gradientTransform="matrix(1.1228 0 0 1.1228 -185.11 -44.664)" y1="55.762" x1="181.48"/>
<linearGradient id="l" y2="217.97" gradientUnits="userSpaceOnUse" x2="130.17" gradientTransform="matrix(1.1228 0 0 1.1228 -53.23 -150.84)" y1="163.73" x1="77.627">
<stop stop-color="#212247" offset="0"/>
<stop stop-color="#928eb4" offset="1"/>
</linearGradient>
<linearGradient id="k" y2="63.881" xlink:href="#a" gradientUnits="userSpaceOnUse" x2="100.91" gradientTransform="matrix(1.1228 0 0 1.1228 -71.808 -26.477)" y1="99.476" x1="141.54"/>
<linearGradient id="j" y2="108.75" xlink:href="#a" gradientUnits="userSpaceOnUse" x2="41.958" gradientTransform="translate(-57.827 36.494)" y1="115.88" x1="56.243"/>
<linearGradient id="i" y2="115.03" xlink:href="#a" gradientUnits="userSpaceOnUse" x2="75.286" gradientTransform="matrix(1.044 0 0 1.044 -61.331 31.996)" y1="97.948" x1="57.087"/>
<linearGradient id="h" y2="118.17" gradientUnits="userSpaceOnUse" x2="69.872" gradientTransform="translate(-51.954 34.996)" y1="101.93" x1="52.733">
<stop stop-color="#75dff1" offset="0"/>
<stop stop-color="#0a7a8d" stop-opacity=".41065" offset="1"/>
</linearGradient>
<linearGradient id="p" y2="114.51" gradientUnits="userSpaceOnUse" x2="65.806" gradientTransform="translate(-83.774 34.816)" y1="98.486" x1="50.136">
<stop stop-color="#75dff1" offset="0"/>
<stop stop-color="#0a7a8d" offset="1"/>
</linearGradient>
<filter id="aa" style="color-interpolation-filters:sRGB" height="1.096" width="1.096" y="-0.048" x="-0.048">
<feGaussianBlur stdDeviation="0.3791185"/>
</filter>
<filter id="z" style="color-interpolation-filters:sRGB" height="1.072" width="1.072" y="-0.036" x="-0.036">
<feGaussianBlur stdDeviation="0.28433887"/>
</filter>
<linearGradient id="o" y2="145.74" xlink:href="#ab" gradientUnits="userSpaceOnUse" x2="18.876" gradientTransform="translate(-6.1722 -12.824)" y1="145.74" x1="85.812"/>
<linearGradient id="n" y2="114.1" spreadMethod="reflect" gradientUnits="userSpaceOnUse" x2="49.018" gradientTransform="translate(.059924 22.532)" y1="114.1" x1="52.194">
<stop stop-color="#fff" offset="0"/>
<stop stop-color="#c4c4c4" offset="1"/>
</linearGradient>
<radialGradient id="d" gradientUnits="userSpaceOnUse" cy="112.07" cx="49.497" gradientTransform="matrix(1 0 0 .24747 0 84.326)" r="42.762">
<stop stop-color="#e45b63" offset="0"/>
<stop stop-color="#810000" offset="1"/>
</radialGradient>
<filter id="y" style="color-interpolation-filters:sRGB" height="1.0711" width="1.0144" y="-.035541" x="-.0072186">
<feGaussianBlur stdDeviation="0.16239486"/>
</filter>
<filter id="x" style="color-interpolation-filters:sRGB" height="1.0472" width="1.0161" y="-.023612" x="-.0080441">
<feGaussianBlur stdDeviation="0.25528133"/>
</filter>
<filter id="w" style="color-interpolation-filters:sRGB" height="1.0396" width="1.0609" y="-.019809" x="-.030441">
<feGaussianBlur stdDeviation="0.17757398"/>
</filter>
<linearGradient id="g" y2="85.345" xlink:href="#c" gradientUnits="userSpaceOnUse" x2="18.19" gradientTransform="translate(.076403 -.21273)" y1="85.345" x1="81.835"/>
<linearGradient id="f" y2="83.986" xlink:href="#b" gradientUnits="userSpaceOnUse" x2="40.269" gradientTransform="translate(19.056 1.1386)" y1="83.986" x1="21.633"/>
<filter id="v" style="color-interpolation-filters:sRGB" height="1.048" width="1.048" y="-.024" x="-.024">
<feGaussianBlur stdDeviation="0.18636459"/>
</filter>
<linearGradient id="e" y2="95.344" gradientUnits="userSpaceOnUse" x2="38.095" gradientTransform="translate(.17678 .088388)" y1="94.725" x1="31.024">
<stop offset="0"/>
<stop stop-color="#d8d8d8" offset=".42716"/>
<stop offset="1"/>
</linearGradient>
<filter id="u" style="color-interpolation-filters:sRGB" height="1.0294" width="1.0075" y="-.014688" x="-0.00377">
<feGaussianBlur stdDeviation="0.13234916"/>
</filter>
<filter id="t" style="color-interpolation-filters:sRGB" height="1.0257" width="1.0078" y="-.012867" x="-.0039121">
<feGaussianBlur stdDeviation="0.10401907"/>
</filter>
<filter id="s" style="color-interpolation-filters:sRGB" height="1.0123" width="1.0117" y="-.0061614" x="-.0058468">
<feGaussianBlur stdDeviation="0.18272288"/>
</filter>
<filter id="r" style="color-interpolation-filters:sRGB" height="1.2179" width="1.0127" y="-.10897" x="-.0063496">
<feGaussianBlur stdDeviation="0.12714919"/>
</filter>
<filter id="q" style="color-interpolation-filters:sRGB" height="1.0209" width="1.0013" y="-.010451" x="-.00063654">
<feGaussianBlur stdDeviation="0.016550724"/>
</filter>
</defs>
<g>
<g>
<path d="m53.895-3.6343e-7v8.8114a56.14 56.14 0 0 0 -21.748 8.9866l-6.2171-6.2281-14.303 14.281 6.2434 6.2544a56.14 56.14 0 0 0 -9.0805 21.79h-8.7895v20.211h8.7829a56.14 56.14 0 0 0 9.0811 21.798l-6.2368 6.2456 14.303 14.281 6.2281-6.2368a56.14 56.14 0 0 0 21.737 9.0132v8.7939h20.211v-8.8026a56.14 56.14 0 0 0 21.717 -9.0219l6.2456 6.2544 14.303-14.281-6.2105-6.2215a56.14 56.14 0 0 0 9.0175 -21.822h8.8224v-20.211h-8.8333a56.14 56.14 0 0 0 -9.0022 -21.827l6.2061-6.2171-14.303-14.281-6.25 6.2588a56.14 56.14 0 0 0 -21.718 -9.0028v-8.8202h-20.211z" fill="url(#m)"/>
<path fill="url(#l)" d="m108.15 64.019a44.341 44.341 0 0 1 -43.795 44.341 44.341 44.341 0 0 1 -44.874 -43.249 44.341 44.341 0 0 1 42.691 -45.403 44.341 44.341 0 0 1 45.928 42.129"/>
<ellipse rx="37.502" ry="35.587" filter="url(#s)" cy="65.998" cx="63.881" fill="url(#k)"/>
</g>
<path d="m-8.427 133.71c6.9614-0.0212 7 21.515 7 21.515h-14s0.0471-21.494 7-21.515z" fill-rule="evenodd" transform="matrix(1.1228 0 0 1.1228 72.986 -99.95)" filter="url(#w)" fill="url(#j)"/>
<ellipse rx="9.478" ry="9.4779" stroke="url(#i)" transform="matrix(1.1228 0 0 1.1228 72.986 -99.95)" filter="url(#aa)" cy="142.95" cx="7.6423" stroke-width="1.044" fill="url(#h)"/>
<ellipse rx="9.478" ry="9.4779" stroke="#000" transform="matrix(1.1228 0 0 1.1228 72.986 -99.95)" filter="url(#z)" cy="142.77" cx="-24.177" stroke-width="1.044" fill="url(#p)"/>
<path d="m10.846 128.96h76.165s-3.353 12.64-8.6901 17.977c-10.627 10.627-47.621 10.627-58.248 0-5.3321-5.3321-9.2268-17.977-9.2268-17.977z" fill-rule="evenodd" transform="matrix(1.1228 0 0 1.1228 8.5956 -70.48)" filter="url(#x)" fill="url(#o)"/>
<ellipse rx="26.996" ry="5.4831" transform="matrix(1.1228 0 0 1.1228 8.5956 -70.48)" filter="url(#y)" cy="136.72" cx="48.808" fill="url(#n)"/>
</g>
<path d="m72.808 133.87c-1.9773 3.4248-46.062 3.0407-48.059-0.41947" transform="matrix(1.1228 0 0 1.1228 8.5956 -70.48)" filter="url(#r)" stroke="#9f9f9f" stroke-width=".5" fill="none"/>
<g>
<path d="m49.318 118.05c-9.1038-0.002-34.682-10.007-41.707-10.007 2.9251 7.6739 3.0064 14.837-0.29962 21.393 1.8441 0.92203 29.014-10.538 35.116-7.0147 1.4019 0.80937 12.382 0.81464 13.793-0.00009 6.0298-3.4845 33.658 7.7383 35.345 6.8949-2.5604-7.6028-2.8691-14.808 0-21.453-7.0284 0-33.143 10.189-42.247 10.187z" fill-rule="evenodd" transform="matrix(1.1228 0 0 1.1228 7.8555 -58.907)" filter="url(#u)" fill="url(#d)"/>
<path d="m20.246 94.364c-0.81243-9.0564-2.0339-11.377-2.0339-15.424 8.7006-5.0233 55.121-5.1036 63.814-0.0847 0 3.9689-1.5839 6.7002-2.2881 15.678z" fill-rule="evenodd" transform="matrix(1.1228 0 0 1.1228 7.6834 -58.892)" filter="url(#t)" fill="url(#g)"/>
<path transform="matrix(1.0923 0 0 1.0915 9.0107 -56.52)" filter="url(#v)" fill="url(#f)" d="m59.325 85.125a9.3182 9.3182 0 0 1 -9.2035 9.3175 9.3182 9.3182 0 0 1 -9.4301 -9.0882 9.3182 9.3182 0 0 1 8.9714 -9.5412 9.3182 9.3182 0 0 1 9.651 8.8533"/>
<path d="m19.003 93.709v2.5633c20.916 1.6174 41.722 1.6821 62.402 0v-2.5633z" fill-rule="evenodd" transform="matrix(1.1228 0 0 1.1228 7.7826 -59.19)" filter="url(#q)" fill="url(#e)"/>
</g>
</svg>

